<svg xmlns="http://www.w3.org/2000/svg" viewBox="0 0 64 64" role="img" aria-label="tech rocket favicon">
  <rect x="4" y="4" width="56" height="56" rx="14" fill="#1E1E1E" />

  <g transform="translate(0 1)" fill="none">
    <path
      d="M32 10
         C39 15 43 23 43 31
         C43 38 39 45 32 50
         C25 45 21 38 21 31
         C21 23 25 15 32 10 Z"
      fill="#8FD3FF"
      stroke="#FFFFFF"
      stroke-width="2.2"
      stroke-linejoin="round"
    />

    <circle
      cx="32"
      cy="29"
      r="8"
      fill="#1E1E1E"
      stroke="#FFFFFF"
      stroke-width="2.2"
    />

    <path
      d="M21 36 L14 41 L18 31 Z"
      fill="#8FD3FF"
      stroke="#FFFFFF"
      stroke-width="2.2"
      stroke-linejoin="round"
    />

    <path
      d="M43 36 L50 41 L46 31 Z"
      fill="#8FD3FF"
      stroke="#FFFFFF"
      stroke-width="2.2"
      stroke-linejoin="round"
    />

    <path
      d="M32 50 L37 56 L34 56 L32 60 L30 56 L27 56 Z"
      fill="#FF5A4F"
      stroke="#FFFFFF"
      stroke-width="2"
      stroke-linejoin="round"
    />
  </g>
</svg>
